HIERARCHY
ROOT Hips
{
	OFFSET 0.000000 0.000000 0.000000 
	CHANNELS 6 Xposition Yposition Zposition Zrotation Yrotation Xrotation
	JOINT LeftUpLeg
	{
		OFFSET 1.363060 -1.794630 0.839290 
		CHANNELS 3 Zrotation Yrotation Xrotation
		JOINT LeftLeg
		{
			OFFSET 2.448110 -6.726130 0.000000 
			CHANNELS 3 Zrotation Yrotation Xrotation
			JOINT LeftFoot
			{
				OFFSET 2.562200 -7.039590 0.000000 
				CHANNELS 3 Zrotation Yrotation Xrotation
				JOINT LeftToeBase
				{
					OFFSET 0.157640 -0.433110 2.322550 
					CHANNELS 3 Zrotation Yrotation Xrotation
					End Site
					{
						OFFSET 0.000000 0.000000 0.000000 
					}
				}
			}
		}
	}
	JOINT RightUpLeg
	{
		OFFSET -1.305520 -1.794630 0.839290 
		CHANNELS 3 Zrotation Yrotation Xrotation
		JOINT RightLeg
		{
			OFFSET -2.542530 -6.985550 0.000000 
			CHANNELS 3 Zrotation Yrotation Xrotation
			JOINT RightFoot
			{
				OFFSET -2.568260 -7.056230 0.000000 
				CHANNELS 3 Zrotation Yrotation Xrotation
				JOINT RightToeBase
				{
					OFFSET -0.164730 -0.452590 2.363150 
					CHANNELS 3 Zrotation Yrotation Xrotation
					End Site
					{
						OFFSET 0.000000 0.000000 0.000000 
					}
				}
			}
		}
	}
	JOINT Spine
	{
		OFFSET 0.028270 2.035590 -0.193380 
		CHANNELS 3 Zrotation Yrotation Xrotation
		JOINT Spine1
		{
			OFFSET 0.056720 2.048850 -0.042750 
			CHANNELS 3 Zrotation Yrotation Xrotation
			JOINT Neck1
			{
				OFFSET -0.054170 1.746240 0.172020 
				CHANNELS 3 Zrotation Yrotation Xrotation
				JOINT Head
				{
					OFFSET 0.104070 1.761360 -0.123970 
					CHANNELS 3 Zrotation Yrotation Xrotation
					End Site
					{
						OFFSET 0.000000 0.000000 0.000000 
					}
				}
			}
			JOINT LeftArm
			{
				OFFSET 3.362410 1.200890 -0.311210 
				CHANNELS 3 Zrotation Yrotation Xrotation
				JOINT LeftForeArm
				{
					OFFSET 4.983000 -0.000000 -0.000000 
					CHANNELS 3 Zrotation Yrotation Xrotation
					JOINT LeftHand
					{
						OFFSET 3.483560 -0.000000 -0.000000 
						CHANNELS 3 Zrotation Yrotation Xrotation
						JOINT LeftHandIndex1
						{
							OFFSET 0.715260 -0.000000 -0.000000 
							CHANNELS 3 Zrotation Yrotation Xrotation
							End Site
							{
								OFFSET 0.000000 0.000000 0.000000 
							}
						}
					}
				}
			}
			JOINT RightArm
			{
				OFFSET -3.136600 1.374050 -0.404650 
				CHANNELS 3 Zrotation Yrotation Xrotation
				JOINT RightForeArm
				{
					OFFSET -5.241900 -0.000000 -0.000000 
					CHANNELS 3 Zrotation Yrotation Xrotation
					JOINT RightHand
					{
						OFFSET -3.444170 -0.000000 -0.000000 
						CHANNELS 3 Zrotation Yrotation Xrotation
						JOINT RightHandIndex1
						{
							OFFSET -0.622530 -0.000000 -0.000000 
							CHANNELS 3 Zrotation Yrotation Xrotation
							End Site
							{
								OFFSET 0.000000 0.000000 0.000000 
							}
						}
					}
				}
			}
		}
	}
}
MOTION
Frames: 9
Frame Time: 0.041667
1.777676 17.627989 -0.428228 174.806246 71.120045 168.883541 -27.131761 -11.726888 1.679953 -0.923735 8.485088 23.576990 -3.960432 16.262423 -10.741427 0.578200 -4.869200 -13.535900 33.500795 6.006488 -12.048769 -12.644914 -20.801374 69.473665 3.240871 -16.356216 -2.227431 -1.935900 8.731200 -24.958200 0.836906 1.083926 2.572379 -5.630401 0.377546 4.866382 13.589815 -5.116929 17.813015 1.759300 -0.939700 6.047400 -88.224105 -1.510371 13.306703 11.776290 -14.095861 -1.493762 -3.122528 -3.870643 -6.363179 -7.125000 0.000000 0.000000 103.828463 -4.651783 38.307498 -16.378567 25.603833 -6.194922 0.674205 2.775226 -22.019879 7.125000 0.000000 0.000000 
2.001586 17.615543 -0.554991 174.242852 71.707180 168.256850 -27.661389 -11.104677 2.847957 -0.946791 8.334830 23.411335 -3.937412 16.352769 -11.798938 0.552100 -4.759700 -13.224400 33.186330 7.193971 -14.268012 -12.360288 -20.934368 68.787719 3.313986 -16.541510 -4.038381 -1.935400 8.730300 -24.955200 0.866144 0.936931 2.591592 -5.547269 0.270677 4.839109 13.371177 -4.915284 17.994616 1.619300 -0.815800 6.116000 -88.476211 -1.807236 13.059688 11.786444 -14.033642 -1.482621 -3.144450 -3.832662 -6.302041 -7.125000 0.000000 0.000000 103.757142 -4.776505 37.568466 -16.107368 25.243103 -6.008767 0.655011 2.770864 -21.504511 7.125000 0.000000 0.000000 
2.230565 17.596759 -0.678757 173.574678 72.221785 167.528012 -28.214588 -10.485603 4.028233 -0.973313 8.178484 23.224417 -3.874937 16.349279 -12.844043 0.511100 -4.582400 -12.721200 32.778809 8.282747 -16.230358 -11.794067 -20.935214 67.273601 3.359268 -16.703157 -5.756702 -1.924200 8.706300 -24.880800 0.894579 0.771537 2.611093 -5.441490 0.153824 4.820376 13.141795 -4.724463 18.187219 1.473600 -0.695600 6.195200 -88.736014 -2.056863 12.877848 11.812960 -14.008136 -1.482578 -3.155091 -3.803552 -6.344675 -7.125000 0.000000 0.000000 103.682864 -4.872472 36.806993 -15.811955 24.840817 -5.807886 0.639505 2.753922 -20.942944 7.125000 0.000000 0.000000 
2.465192 17.576707 -0.799643 172.848221 72.674076 166.762716 -28.762769 -9.865671 5.254579 -1.019543 7.975700 22.905784 -3.798320 16.313286 -13.814121 0.463200 -4.365300 -12.106800 32.298545 9.241105 -17.920975 -10.964290 -20.782921 64.964046 3.406122 -16.944895 -7.394757 -1.898400 8.651200 -24.710200 0.922816 0.593467 2.625413 -5.325654 0.030524 4.800998 12.914806 -4.538658 18.382865 1.332800 -0.577800 6.279300 -88.990688 -2.241525 12.821981 11.858909 -14.028701 -1.497207 -3.146924 -3.792386 -6.506270 -7.125000 0.000000 0.000000 103.601996 -4.976241 36.066344 -15.514202 24.430720 -5.607146 0.629173 2.728839 -20.469088 7.125000 0.000000 0.000000 
2.706502 17.562187 -0.917648 172.146054 73.075189 166.049363 -29.265598 -9.230711 6.568557 -1.098871 7.687525 22.354748 -3.734250 16.304594 -14.648076 0.416400 -4.142200 -11.477100 31.790167 10.055772 -19.298104 -9.895720 -20.448604 61.897634 3.478254 -17.344298 -8.989379 -1.862900 8.574600 -24.473300 0.952265 0.411391 2.632630 -5.217573 -0.094022 4.779350 12.703688 -4.361864 18.574165 1.206900 -0.466200 6.363900 -89.228908 -2.363779 12.937258 11.924849 -14.096211 -1.527891 -3.117932 -3.800751 -6.795206 -7.125000 0.000000 0.000000 103.520314 -5.120399 35.352267 -15.242585 24.059056 -5.428064 0.615106 2.706674 -20.119981 7.125000 0.000000 0.000000 
2.954727 17.555734 -1.032426 171.540269 73.435745 165.454869 -29.691068 -8.575174 8.009365 -1.218356 7.286359 21.503894 -3.702336 16.365507 -15.311026 0.369000 -3.901700 -10.800300 31.299587 10.734775 -20.330351 -8.634818 -19.907808 58.162253 3.582850 -17.918047 -10.605568 -1.809900 8.458300 -24.114900 0.985899 0.234813 2.636922 -5.117919 -0.215869 4.771433 12.519019 -4.195386 18.750880 1.101400 -0.362900 6.442400 -89.452331 -2.438914 13.242291 12.014007 -14.214005 -1.575655 -3.072746 -3.829732 -7.220000 -7.125000 0.000000 0.000000 103.435688 -5.316897 34.683012 -15.010795 23.749075 -5.278995 0.599280 2.690262 -19.916528 7.125000 0.000000 0.000000 
3.209059 17.555158 -1.143747 171.025073 73.779863 164.974412 -30.036562 -7.892681 9.593578 -1.378601 6.759399 20.322964 -3.713339 16.521661 -15.803532 0.316300 -3.615100 -9.996300 30.845964 11.337270 -21.020636 -7.250746 -19.152382 53.900231 3.714628 -18.637640 -12.269436 -1.723100 8.263900 -23.518400 1.024782 0.076568 2.644102 -5.026790 -0.329113 4.798281 12.354518 -4.034779 18.898047 1.009600 -0.267700 6.505700 -89.670762 -2.493043 13.700014 12.129084 -14.383261 -1.640273 -3.017119 -3.878726 -7.749241 -7.125000 0.000000 0.000000 103.343040 -5.551863 34.065550 -14.817342 23.499024 -5.156777 0.587438 2.676360 -19.825525 7.125000 0.000000 0.000000 
3.468462 17.556541 -1.251149 170.545173 74.125511 164.546048 -30.306437 -7.143342 11.310617 -1.570541 6.110625 18.826802 -3.761166 16.749836 -16.118450 0.262300 -3.294900 -9.100800 30.426493 11.949352 -21.386546 -5.828031 -18.197287 49.305260 3.850072 -19.424706 -14.085096 -1.590400 7.955100 -22.577800 1.065044 -0.050439 2.658871 -4.952172 -0.426218 4.871213 12.207057 -3.885586 19.012677 0.927000 -0.183200 6.551200 -89.883566 -2.546123 14.261567 12.270905 -14.602671 -1.720597 -2.956857 -3.944826 -8.335588 -7.125000 0.000000 0.000000 103.258839 -5.810207 33.469613 -14.656175 23.299509 -5.056722 0.581770 2.662535 -19.765582 7.125000 0.000000 0.000000 
3.732129 17.555388 -1.354519 169.984127 74.471136 164.047350 -30.536012 -6.317551 13.157729 -1.782087 5.351487 17.049569 -3.837630 17.028889 -16.266074 0.214300 -2.980300 -8.223900 30.004711 12.669858 -21.468879 -4.454835 -17.085173 44.603529 3.957437 -20.185886 -16.133782 -1.400000 7.484900 -21.160000 1.099558 -0.142124 2.681832 -4.901926 -0.503128 4.984324 12.078834 -3.753963 19.098068 0.852500 -0.111000 6.577500 -90.080053 -2.600674 14.889599 12.438670 -14.870839 -1.815550 -2.898884 -4.025711 -8.940461 -7.125000 0.000000 0.000000 103.197817 -6.081570 32.891800 -14.517382 23.135725 -4.972392 0.582111 2.647740 -19.692775 7.125000 0.000000 0.000000 
